<svg width="395" height="97" viewBox="0 0 395 97" fill="none" xmlns="http://www.w3.org/2000/svg">
<path d="M2.47571 26.8663C2.47571 10.7922 14.7226 0.0761719 39.9819 0.0761719C60.0362 0.0761719 78.1004 7.57741 78.1004 21.8144C78.1004 30.0811 72.13 36.2046 63.8634 36.2046C55.5967 36.2046 49.4732 30.0811 49.4732 21.8144C53.1473 18.7527 54.6782 14.7725 54.6782 10.7922C54.6782 6.35272 50.0856 1.60704 39.9819 1.60704C30.0313 1.60704 23.6016 6.35272 23.6016 13.7009C23.6016 35.4391 80.5498 40.491 80.5498 70.1898C80.5498 86.2638 65.8535 96.8268 40.2881 96.8268C18.7029 96.8268 0.638672 89.3255 0.638672 75.0885C0.638672 66.8218 6.60904 60.6984 14.8757 60.6984C23.1424 60.6984 29.2658 66.8218 29.2658 75.0885C25.5918 78.1502 24.3671 80.5996 24.3671 84.5799C24.3671 89.3256 28.0411 95.2959 40.2881 95.2959C51.9226 95.2959 59.5769 90.5502 59.5769 83.2021C59.5769 61.4638 2.47571 56.5651 2.47571 26.8663Z" fill="white"/>
<path d="M156.167 78.6095C158.77 85.4984 163.362 90.7033 166.118 92.8465V93.612C166.118 94.0712 165.965 94.3774 165.659 94.3774H127.693C127.387 94.3774 126.928 94.0712 126.928 93.7651V93.1527C132.133 91.3157 131.214 87.0293 128.918 81.212L124.478 69.8836H91.871L87.4315 81.212C85.1352 87.0293 84.2167 91.3157 89.4216 93.1527V93.7651C89.4216 94.0712 88.9624 94.3774 88.6562 94.3774H77.1747C76.8685 94.3774 76.7154 94.0712 76.7154 93.7651V93.3058C79.471 91.6218 83.1451 87.6416 85.1352 82.5898L116.671 2.52556H126.162L156.167 78.6095ZM92.4833 68.3527H123.866L108.098 28.3972L92.4833 68.3527Z" fill="white"/>
<path d="M247.062 78.6095C249.665 85.4984 254.257 90.7033 257.013 92.8465V93.612C257.013 94.0712 256.86 94.3774 256.554 94.3774H218.588C218.282 94.3774 217.823 94.0712 217.823 93.7651V93.1527C223.028 91.3157 222.109 87.0293 219.813 81.212L215.373 69.8836H182.766L178.327 81.212C176.03 87.0293 175.112 91.3157 180.317 93.1527V93.7651C180.317 94.0712 179.857 94.3774 179.551 94.3774H168.07C167.764 94.3774 167.61 94.0712 167.61 93.7651V93.3058C170.366 91.6218 174.04 87.6416 176.03 82.5898L207.566 2.52556H217.057L247.062 78.6095ZM183.378 68.3527H214.761L198.993 28.3972L183.378 68.3527Z" fill="white"/>
<path d="M245.433 13.5478C242.831 8.8021 238.238 5.28112 235.483 3.59716V3.13791C235.483 2.83173 235.636 2.52556 235.942 2.52556H275.438C275.745 2.52556 276.204 2.98482 276.204 3.44408V4.20951C270.999 6.81198 274.367 12.3231 278.347 19.8243L295.186 51.0539L310.954 20.1305C314.935 12.4762 317.996 6.81198 312.791 4.20951V3.44408C312.791 2.98482 313.251 2.52556 313.557 2.52556H325.038C325.344 2.52556 325.498 2.83173 325.498 2.98482V3.44408C322.742 4.97494 318.762 8.18976 316.465 12.6293L295.033 54.5749V80.2935C295.033 86.4169 296.564 91.3157 300.545 93.1527V93.7651C300.545 94.0712 300.238 94.3774 299.932 94.3774H263.498C263.191 94.3774 262.885 94.0712 262.885 93.7651V93.1527C266.865 91.3157 268.396 86.4169 268.396 80.2935V54.5749L245.433 13.5478Z" fill="white"/>
<path d="M385.049 78.6095C387.652 85.4984 392.244 90.7033 395 92.8465V93.612C395 94.0712 394.847 94.3774 394.541 94.3774H356.575C356.269 94.3774 355.81 94.0712 355.81 93.7651V93.1527C361.015 91.3157 360.096 87.0293 357.8 81.212L353.361 69.8836H320.753L316.314 81.212C314.017 87.0293 313.099 91.3157 318.304 93.1527V93.7651C318.304 94.0712 317.844 94.3774 317.538 94.3774H306.057C305.751 94.3774 305.598 94.0712 305.598 93.7651V93.3058C308.353 91.6218 312.027 87.6416 314.017 82.5898L345.553 2.52556H355.044L385.049 78.6095ZM321.365 68.3527H352.748L336.98 28.3972L321.365 68.3527Z" fill="white"/>
</svg>
